<svg xmlns="http://www.w3.org/2000/svg" viewBox="0 0 19 10"><path fill="#fff" d="M0 0h19v10H0z"/><path stroke="#b22234" stroke-width=".77" d="M0 .385h19M0 1.923h19M0 3.462h19M0 5h19M0 6.538h19M0 8.077h19M0 9.615h19"/><path fill="#3c3b6e" d="M0 0h7.6v5.385H0z"/><g fill="#fff"><circle cx="1.2" cy="1" r=".2"/><circle cx="3" cy="1" r=".2"/><circle cx="4.8" cy="1" r=".2"/><circle cx="6.6" cy="1" r=".2"/><circle cx="2.1" cy="2.1" r=".2"/><circle cx="3.9" cy="2.1" r=".2"/><circle cx="5.7" cy="2.1" r=".2"/><circle cx="1.2" cy="3.2" r=".2"/><circle cx="3" cy="3.2" r=".2"/><circle cx="4.8" cy="3.2" r=".2"/><circle cx="6.6" cy="3.2" r=".2"/><circle cx="2.1" cy="4.3" r=".2"/><circle cx="3.9" cy="4.3" r=".2"/><circle cx="5.7" cy="4.3" r=".2"/></g></svg>
